<svg width="56" height="56" viewBox="0 0 56 56" fill="none" xmlns="http://www.w3.org/2000/svg">
<path d="M48.791 25.9467C48.791 37.3567 40.5076 48.0433 29.191 51.17C28.421 51.38 27.5809 51.38 26.8109 51.17C15.4943 48.0433 7.21094 37.3567 7.21094 25.9467V15.7033C7.21094 13.79 8.65764 11.62 10.4543 10.8966L23.4509 5.5767C26.3676 4.3867 29.6576 4.3867 32.5743 5.5767L45.5709 10.8966C47.3443 11.62 48.8143 13.79 48.8143 15.7033L48.791 25.9467Z" stroke="#92C46A" stroke-width="3" stroke-linecap="round" stroke-linejoin="round"/>
<path d="M28.0026 29.1666C30.5799 29.1666 32.6693 27.0772 32.6693 24.4999C32.6693 21.9226 30.5799 19.8333 28.0026 19.8333C25.4253 19.8333 23.3359 21.9226 23.3359 24.4999C23.3359 27.0772 25.4253 29.1666 28.0026 29.1666Z" stroke="#92C46A" stroke-width="3" stroke-miterlimit="10" stroke-linecap="round" stroke-linejoin="round"/>
<path d="M28 29.1665V36.1665" stroke="#92C46A" stroke-width="3" stroke-miterlimit="10" stroke-linecap="round" stroke-linejoin="round"/>
</svg>
